<svg id="katman_1" data-name="katman 1" xmlns="http://www.w3.org/2000/svg" xmlns:xlink="http://www.w3.org/1999/xlink" viewBox="0 0 1200 579.39"><defs><style>.cls-1,.cls-2,.cls-3,.cls-4{opacity:0.8;mix-blend-mode:multiply;}.cls-2{fill:url(#linear-gradient);}.cls-3{fill:url(#linear-gradient-2);}.cls-4{fill:url(#linear-gradient-3);}.cls-5,.cls-7{fill:#f2d109;}.cls-6{fill:#1d1d1b;}.cls-7{stroke:#1d1d1b;stroke-width:3px;}.cls-10,.cls-11,.cls-12,.cls-7,.cls-8{stroke-miterlimit:10;}.cls-10,.cls-11,.cls-12,.cls-8{fill:none;}.cls-8{stroke:#000;}.cls-9{fill:#0a0d0e;}.cls-10,.cls-11,.cls-12{stroke:#0a0d0e;}.cls-11{stroke-width:8px;}.cls-12{stroke-width:5px;}</style><linearGradient id="linear-gradient" x1="5.29" y1="34.42" x2="5.29" y2="-2.11" gradientUnits="userSpaceOnUse"><stop offset="0" stop-color="#fff"/><stop offset="1" stop-color="#f9ad1d"/></linearGradient><linearGradient id="linear-gradient-2" x1="11.65" y1="34.42" x2="11.65" y2="-2.11" xlink:href="#linear-gradient"/><linearGradient id="linear-gradient-3" x1="17.15" y1="34.42" x2="17.15" y2="-2.11" xlink:href="#linear-gradient"/><symbol id="RSS_-_Orange" data-name="RSS - Orange" viewBox="0 0 33 33.01"><g class="cls-1"><path id="circle" class="cls-2" d="M9.58,28.73a4.29,4.29,0,1,1-4.3-4.3A4.29,4.29,0,0,1,9.58,28.73Z"/><path class="cls-3" d="M22,32.77H16.38a15.35,15.35,0,0,0-4.51-10.64A15.32,15.32,0,0,0,1.28,17.61V12A21.07,21.07,0,0,1,22,32.77Z"/><path class="cls-4" d="M33,32.77H27.37A26.44,26.44,0,0,0,1.29,6.62V1A32.07,32.07,0,0,1,33,32.77Z"/></g><path id="circle-2" data-name="circle" d="M8.58,27.72a4.29,4.29,0,1,1-4.3-4.29A4.29,4.29,0,0,1,8.58,27.72Z"/><path d="M21,31.77H15.38a15.37,15.37,0,0,0-4.51-10.64A15.32,15.32,0,0,0,.28,16.61V11A21.07,21.07,0,0,1,21,31.77Z"/><path d="M32,31.77H26.37A26.45,26.45,0,0,0,.29,5.62V0A32.07,32.07,0,0,1,32,31.77Z"/></symbol></defs><ellipse class="cls-5" cx="579.34" cy="284.76" rx="367.52" ry="250.76"/><path class="cls-6" d="M629.77,282.52l-13,7.93q-5.64-5.68-10.53-5.69a6.51,6.51,0,0,0-4.13,1.35,4,4,0,0,0-1.73,3.28,5.21,5.21,0,0,0,2,4.56q2,1.43,10.63,4.38a37.81,37.81,0,0,1,13.61,7.61q5,4.65,5,12.87t-7.48,14.26a28,28,0,0,1-18,5.95,28.77,28.77,0,0,1-14.18-4,33.2,33.2,0,0,1-12-12.13l15.5-7q5.24,9,10.85,9.05a7,7,0,0,0,4.56-1.64,4.74,4.74,0,0,0,2-3.73,4.45,4.45,0,0,0-2.32-4.07,7.83,7.83,0,0,0-3.44-1.39c-.3-.35-2.09-1.05-5.39-2.1q-19.31-6.3-19.31-20.45a17,17,0,0,1,6.93-14q6.91-5.42,18.07-5.42Q619.74,272.19,629.77,282.52Z"/><path class="cls-6" d="M707.75,310.21H661.88a15.46,15.46,0,0,0,4.08,10.1,11.55,11.55,0,0,0,8.64,3.89q8.83,0,13.84-8L706,322q-9.79,17.14-30.46,17.14-15.2,0-24.17-9.2t-9-24.78a32,32,0,0,1,9.47-23.5,31.63,31.63,0,0,1,23.31-9.5,30.48,30.48,0,0,1,23.24,10q9.31,10,9.31,25ZM662,297.33h25.89q-2.7-12-12.35-12a12.82,12.82,0,0,0-13.54,12Z"/><path class="cls-6" d="M739.49,273.46V283h.3a25.39,25.39,0,0,1,6.62-7.59q3.78-2.81,7-2.81a18.94,18.94,0,0,1,3.52.3v21a25.55,25.55,0,0,0-4.72-.45,11,11,0,0,0-9.17,4.15q-3.25,4.16-3.25,11.64v28.66H720.33V273.46Z"/><path class="cls-6" d="M765.83,273.46h20.24l17.67,37.72,17.64-37.72h20l-30,64.36H795.82Z"/><path class="cls-6" d="M852.05,249.62a12,12,0,1,1,3.52,8.49A11.5,11.5,0,0,1,852.05,249.62Zm2.47,23.84h19.16v64.36H854.52Z"/><path class="cls-6" d="M940.81,282.52l-13,7.93q-5.64-5.68-10.53-5.69a6.51,6.51,0,0,0-4.13,1.35,4,4,0,0,0-1.73,3.28,5.2,5.2,0,0,0,2,4.56q2,1.43,10.62,4.38a37.72,37.72,0,0,1,13.61,7.61q5,4.65,5,12.87t-7.49,14.26a27.94,27.94,0,0,1-18,5.95,28.77,28.77,0,0,1-14.18-4,33.1,33.1,0,0,1-12-12.13l15.49-7q5.24,9,10.85,9.05a7,7,0,0,0,4.57-1.64,4.77,4.77,0,0,0,2-3.73,4.47,4.47,0,0,0-2.32-4.07,7.92,7.92,0,0,0-3.44-1.39q-.45-.53-5.39-2.1-19.32-6.3-19.31-20.45a16.94,16.94,0,0,1,6.92-14q6.92-5.42,18.07-5.42Q930.79,272.19,940.81,282.52Z"/><path class="cls-7" d="M960.2,273.46h19.15v64.36H960.2Z"/><path class="cls-7" d="M998.59,273.46h60.62l-34,46.7h28.62v17.66H993.2l34.17-46.92H998.59Z"/><path class="cls-7" d="M1073,237.91h19.16v99.91H1073Z"/><path class="cls-7" d="M1171.85,310.21H1126a15.46,15.46,0,0,0,4.08,10.1,11.55,11.55,0,0,0,8.64,3.89q8.83,0,13.85-8l17.59,5.83q-9.81,17.14-30.46,17.14-15.2,0-24.18-9.2t-9-24.78a32,32,0,0,1,9.47-23.5,31.63,31.63,0,0,1,23.31-9.5,30.47,30.47,0,0,1,23.24,10q9.32,10,9.32,25Zm-45.73-12.88H1152q-2.7-12-12.35-12a12.84,12.84,0,0,0-13.55,12Z"/><use width="33" height="33.01" transform="translate(910.17 205.96) rotate(-45) scale(2.61)" xlink:href="#RSS_-_Orange"/><path class="cls-8" d="M86.73,264.28l101.36-47.45,7.55-14.55s120.24-63.09,133.72-64.7c0,0,92.19-30.74,169.29,28,0,0,24.27,10.84,29.12,31.3l42.06-3.26s34,44.21-12.41,42.59l-4.85-34-24.26,2.15L558,277.22s16.18,14.56,17.8,33.43c0,0-66.86,87.06-266.35-22.52L74.87,312.88S78.64,263.2,86.73,264.28Z"/><path d="M74.87,320.12l231.6-24s158.76,101.33,272,29.08l3.37,73.32S331,414.17,312.64,407.16c0,0-27-108.37-84.65-13.48l-69-15.09s-16.18-67.4-63.09-11.33L70,363Z"/><path class="cls-5" d="M376.8,336.53s0,48.53,55.54,35.59c0,0,37.74-4.63,11.32-19.57C443.66,352.55,388.91,347.85,376.8,336.53Z"/><path class="cls-5" d="M576.35,330.61s6.51,41.72-39.37,37.48c0,0-30.62.71-11.62-15.41C525.36,352.68,568.24,341.85,576.35,330.61Z"/><path class="cls-9" d="M87,285.31v12.93l34-10.11,3.24-16.84s-12.94,7-18.6,0C105.57,271.29,90.74,287.47,87,285.31Z"/><path class="cls-9" d="M179.6,255.93l-.77,14.54-48.72,14.29,1.18-22.21s6.44-7.21,11.94,3.33c0,0,24,4,18.75-10.88C162,255,177.45,248.8,179.6,255.93Z"/><path class="cls-9" d="M251.61,248.57,185.92,269l-.52-12.39s12.42,7.57,17.5-15.31l37,5.44s7.48-13.81,11.27-7.49Z"/><path class="cls-9" d="M307.79,235.49v17.13s-32.89,10.66-38.28,5.81V241.57s10-.39,10.92-19.81C280.43,221.76,290,250.84,307.79,235.49Z"/><polygon class="cls-10" points="272.74 193.65 302.94 181.25 311.56 253.62 266.27 264.82 272.74 193.65"/><polygon class="cls-10" points="183.78 230.85 261.42 198.5 254.95 253.62 183.78 271.29 183.78 230.85"/><polygon class="cls-10" points="127.17 253.62 180.54 232.47 180.54 275.06 129.32 288.13 127.17 253.62"/><polygon class="cls-10" points="85.65 271.29 127.17 256.93 123.93 288.13 85.65 302.02 85.65 271.29"/><path class="cls-10" d="M335.83,181.25s69-56.61,183.31,14.56l41,106.21s-57.92,38.26-198.53-3.78Z"/><path class="cls-9" d="M367.64,178s35,36.67-6.47,40.44l-5.93-32.35H335.83v-4.85Z"/><polygon class="cls-9" points="430.92 160.52 409.15 202.89 420.04 202.89 376.8 287.13 409.15 210.44 399.45 207.75 419.4 160.52 430.92 160.52"/><polygon class="cls-9" points="403.86 159.9 409.69 159.9 389.74 218.45 397.83 218.45 374.43 271.29 392.06 224.82 381.46 222.76 403.86 159.9"/><polygon class="cls-9" points="492.93 181.25 509.44 218.45 498.12 223.03 525.61 276.14 488.95 222.76 504.05 218.45 477.29 174.28 492.93 181.25"/><polygon class="cls-9" points="453.05 166.09 470.09 171.51 488.95 209.82 477.29 213.06 514.83 279.48 465.23 207.13 477.29 202.82 453.05 166.09"/><ellipse class="cls-5" cx="489.19" cy="360.29" rx="10.26" ry="5.66"/><path d="M280.36,362.25h12.72s50.36,55,1.84,79.77H280.36S333.2,413.51,280.36,362.25Z"/><ellipse class="cls-11" cx="265.91" cy="404.15" rx="26.28" ry="36.66"/><ellipse class="cls-9" cx="264.31" cy="401.96" rx="11.05" ry="19.68"/><circle class="cls-9" cx="264.48" cy="402.13" r="6.83"/><path d="M133.94,349.46h10.53S186.21,395,146,415.55H133.94S177.72,391.93,133.94,349.46Z"/><ellipse class="cls-12" cx="121.94" cy="384.49" rx="21.77" ry="30.38"/><ellipse class="cls-9" cx="120.78" cy="381.16" rx="9.16" ry="16.31"/><circle class="cls-9" cx="120.75" cy="381.13" r="5.66"/><path class="cls-9" d="M437.73,409.87s27.88,58.93,51.46-.9l-10.25-4.7s-7.24,33.46-28.81,4.7Z"/><path class="cls-9" d="M510.52,404.27s-3.24,35.24-36.67,35.78c0,0,21.57-16.33,21-31.08Z"/><path class="cls-9" d="M85.65,269.69l2.9-6.26-1.82.85s-9.63,1.49-11.86,48.6l10.78-1.13V271.29"/><path class="cls-9" d="M188.09,216.83,86.73,264.28l-3.7,7,44.14-14.36v-3.31L311.56,178l24.27,3.24,18.2-10.4L327.2,138.07s-48.3,19.61-131.56,64.21Z"/><polygon class="cls-9" points="85.65 301.85 123.93 287.71 123.93 253.92 127.17 252.59 129.32 287.71 180.54 274.41 180.54 231.06 183.78 229.42 183.78 270.57 254.95 252.59 261.42 194.69 272.74 191.55 266.27 263.99 311.56 252.59 302.94 178.93 311.56 175.64 335.82 178.93 357.46 278.9 358.14 282.07 85.65 311.75 85.65 301.85"/><path class="cls-9" d="M327.2,138.07s89.22-33.81,171.45,27.54c0,0,28.41,15.89,29.12,31.3l-8.63-1.1S431.5,136.1,354,170.85l-25.68-31.38Z"/><path class="cls-9" d="M569.83,193.65s34.88,43.89-12.41,42.59l-4.85-34-24.26,2.15L558,277.22l-6.54,2.26-32.28-83.67,8.63,1.1Z"/><path class="cls-9" d="M576.67,309.25s-9-26.06-18.71-32l-6.54,2.26,8.7,22.54s-53,37.79-198.53-3.78l-3.44-16.17-48.85,5-10.42,1.06a29,29,0,0,1,16.2,3.08S493.39,395.46,576.67,309.25Z"/><path d="M74.87,320.12l231.6-24-21.89,62.4S257.69,338.7,228,393.68l-69-15.09S142.7,310,95.89,367.26L70,363Z"/><rect class="cls-5" x="381.06" y="382.8" width="191.24" height="6.89" rx="3.44" transform="translate(-20.8 27.19) rotate(-3.2)"/><polygon class="cls-9" points="84.8 299.84 258.38 247.87 258.38 259.69 87.09 306.12 84.8 299.84"/><polygon class="cls-9" points="81.71 272.64 100.16 266.27 100.16 263.43 81.71 272.64"/></svg>